<svg xmlns="http://www.w3.org/2000/svg" width="1099" height="1099" viewBox="0 0 1099 1099" version="1.1"><path d="M 557.500 307.594 C 562.250 308.358, 569 308.453, 569 307.757 C 569 307.341, 565.962 307.061, 562.250 307.136 C 558.538 307.211, 556.400 307.417, 557.500 307.594 M 639.280 334.736 C 641.909 334.943, 645.959 334.940, 648.280 334.731 C 650.601 334.521, 648.450 334.352, 643.500 334.355 C 638.550 334.358, 636.651 334.530, 639.280 334.736 M 720.750 335.723 C 722.538 335.945, 725.462 335.945, 727.250 335.723 C 729.038 335.502, 727.575 335.320, 724 335.320 C 720.425 335.320, 718.962 335.502, 720.750 335.723 M 726.728 340.722 C 728.503 340.943, 731.653 340.946, 733.728 340.730 C 735.802 340.513, 734.350 340.333, 730.500 340.328 C 726.650 340.324, 724.952 340.501, 726.728 340.722 M 389.978 374.750 L 381.500 383.500 390.250 375.022 C 398.377 367.148, 399.456 366, 398.728 366 C 398.578 366, 394.641 369.938, 389.978 374.750 M 740.776 381.733 C 743.128 381.945, 746.728 381.942, 748.776 381.727 C 750.824 381.512, 748.900 381.339, 744.500 381.343 C 740.100 381.346, 738.424 381.522, 740.776 381.733 M 308.328 442.500 C 308.333 446.350, 308.513 447.802, 308.730 445.728 C 308.946 443.653, 308.943 440.503, 308.722 438.728 C 308.501 436.952, 308.324 438.650, 308.328 442.500 M 562.469 448.250 L 556.500 454.500 562.750 448.531 C 566.188 445.249, 569 442.436, 569 442.281 C 569 441.542, 568.013 442.444, 562.469 448.250 M 702 448.500 C 705.543 452.075, 708.667 455, 708.942 455 C 709.217 455, 706.543 452.075, 703 448.500 C 699.457 444.925, 696.333 442, 696.058 442 C 695.783 442, 698.457 444.925, 702 448.500 M 501.500 501 C 504.766 504.300, 507.662 507, 507.937 507 C 508.212 507, 505.766 504.300, 502.500 501 C 499.234 497.700, 496.338 495, 496.063 495 C 495.788 495, 498.234 497.700, 501.500 501 M 402.750 525.732 C 405.087 525.943, 408.913 525.943, 411.250 525.732 C 413.587 525.522, 411.675 525.349, 407 525.349 C 402.325 525.349, 400.413 525.522, 402.750 525.732 M 658.728 569.722 C 660.503 569.943, 663.653 569.946, 665.728 569.730 C 667.802 569.513, 666.350 569.333, 662.500 569.328 C 658.650 569.324, 656.952 569.501, 658.728 569.722 M 657.768 582.725 C 659.565 582.947, 662.265 582.943, 663.768 582.715 C 665.271 582.486, 663.800 582.304, 660.500 582.310 C 657.200 582.315, 655.971 582.502, 657.768 582.725 M 357.420 711.500 C 357.419 722.500, 357.565 727.136, 357.745 721.803 C 357.924 716.470, 357.925 707.470, 357.746 701.803 C 357.568 696.136, 357.421 700.500, 357.420 711.500 M 789.451 731.500 C 789.451 751.300, 789.585 759.542, 789.748 749.815 C 789.912 740.088, 789.912 723.888, 789.749 713.815 C 789.586 703.742, 789.452 711.700, 789.451 731.500 M 722 717.500 C 724.987 720.525, 727.657 723, 727.932 723 C 728.207 723, 725.987 720.525, 723 717.500 C 720.013 714.475, 717.343 712, 717.068 712 C 716.793 712, 719.013 714.475, 722 717.500 M 390.500 733.500 C 390.500 739.720, 390.837 744.600, 391.250 744.345 C 391.663 744.091, 392 739.210, 392 733.500 C 392 727.790, 391.663 722.909, 391.250 722.655 C 390.837 722.400, 390.500 727.280, 390.500 733.500 M 620.336 733 C 620.336 737.125, 620.513 738.813, 620.728 736.750 C 620.944 734.688, 620.944 731.313, 620.728 729.250 C 620.513 727.188, 620.336 728.875, 620.336 733 M 631.336 733 C 631.336 737.125, 631.513 738.813, 631.728 736.750 C 631.944 734.688, 631.944 731.313, 631.728 729.250 C 631.513 727.188, 631.336 728.875, 631.336 733 M 741 735.500 C 743.987 738.525, 746.657 741, 746.932 741 C 747.207 741, 744.987 738.525, 742 735.500 C 739.013 732.475, 736.343 730, 736.068 730 C 735.793 730, 738.013 732.475, 741 735.500 M 357.419 755 C 357.419 765.725, 357.566 770.112, 357.746 764.750 C 357.925 759.388, 357.925 750.612, 357.746 745.250 C 357.566 739.888, 357.419 744.275, 357.419 755 M 759 752.500 C 761.987 755.525, 764.657 758, 764.932 758 C 765.207 758, 762.987 755.525, 760 752.500 C 757.013 749.475, 754.343 747, 754.068 747 C 753.793 747, 756.013 749.475, 759 752.500 M 539.465 824.952 C 535.909 826.393, 534.700 828.723, 535.276 833.024 C 535.704 836.212, 535.446 837.226, 534.012 837.994 C 531.126 839.538, 530.002 844.100, 531.582 847.858 C 533.443 852.284, 538.577 854.342, 545.916 853.604 C 548.987 853.296, 554.425 853.066, 558 853.095 L 564.500 853.146 561 850.776 C 557.678 848.527, 557.518 848.154, 557.851 843.453 C 558.045 840.729, 558.662 837.938, 559.224 837.250 C 560.016 836.281, 559.151 836.007, 555.372 836.030 C 551.786 836.053, 550.932 836.313, 552.138 837.018 C 553.944 838.072, 555.409 842.530, 554.456 844.071 C 553.714 845.271, 544.018 836.755, 542.149 833.262 C 538.803 827.007, 546.197 822.987, 549.888 829.055 L 551.746 832.111 552.241 829.520 C 553.107 824.989, 545.810 822.380, 539.465 824.952 M 604.250 825.080 C 605.773 825.967, 606 827.767, 606 838.966 C 606 848.324, 605.659 851.971, 604.750 852.338 C 604.063 852.615, 607.677 852.878, 612.782 852.921 C 618.765 852.972, 623.289 852.488, 625.510 851.560 C 630.146 849.623, 632.992 844.735, 632.996 838.700 C 633.005 827.934, 627.421 824.039, 612 824.052 C 605.066 824.059, 602.973 824.336, 604.250 825.080 M 355.808 838.154 C 356.042 848.168, 355.803 851.509, 354.808 852.140 C 354.031 852.632, 355.938 852.969, 359.500 852.969 C 363.062 852.969, 364.969 852.632, 364.192 852.140 C 363.197 851.509, 362.958 848.168, 363.192 838.154 L 363.500 824.996 359.500 824.996 L 355.500 824.996 355.808 838.154 M 612 838.500 L 612 851 616.500 851 C 621.892 851, 624.410 848.905, 625.968 843.121 C 628.389 834.129, 623.630 826, 615.944 826 L 612 826 612 838.500 M 425.500 839.194 C 422.750 845.328, 419.905 850.943, 419.179 851.673 C 418.082 852.774, 418.389 853, 420.988 853 C 422.776 853, 423.859 852.580, 423.513 852.021 C 423.180 851.482, 423.394 850.132, 423.989 849.021 C 425.544 846.116, 433.577 846.093, 434.497 848.991 C 434.845 850.086, 434.848 851.436, 434.506 851.991 C 434.115 852.623, 435.957 853, 439.441 853 C 444.747 853, 444.920 852.920, 443.240 851.240 C 442.273 850.273, 439.257 844.648, 436.540 838.740 C 433.822 832.833, 431.352 828.009, 431.050 828.021 C 430.747 828.032, 428.250 833.060, 425.500 839.194 M 462.840 839.148 C 463.074 846.690, 462.803 850.532, 461.967 851.540 C 460.933 852.786, 461.463 853, 465.578 853 C 469.328 853, 470.133 852.733, 469.200 851.800 C 467.986 850.586, 467.456 838, 468.619 838 C 468.959 838, 473.208 841.625, 478.061 846.055 L 486.884 854.111 487.192 841.553 L 487.500 828.996 484 828.996 L 480.500 828.995 480.835 836.670 L 481.170 844.345 475.080 839.070 C 471.731 836.168, 468.754 833.411, 468.465 832.944 C 468.176 832.476, 466.716 831.221, 465.220 830.155 L 462.500 828.216 462.840 839.148 M 655.643 838.760 C 652.971 844.667, 649.884 850.288, 648.782 851.250 C 646.821 852.963, 646.857 853, 650.448 853 C 652.588 853, 653.866 852.592, 653.513 852.021 C 653.180 851.482, 653.394 850.132, 653.989 849.021 C 655.544 846.116, 663.577 846.093, 664.497 848.991 C 664.845 850.086, 664.848 851.436, 664.506 851.991 C 664.114 852.625, 666.019 853, 669.632 853 C 674.452 853, 675.113 852.798, 673.721 851.750 C 672.807 851.063, 669.584 845.438, 666.558 839.250 C 663.533 833.063, 660.932 828.004, 660.779 828.010 C 660.625 828.015, 658.314 832.852, 655.643 838.760 M 772.925 839.569 C 769.983 845.932, 766.883 851.544, 766.038 852.039 C 764.932 852.686, 765.569 852.948, 768.309 852.970 C 770.623 852.988, 771.873 852.604, 771.494 851.991 C 771.152 851.436, 771.155 850.086, 771.503 848.991 C 772.423 846.093, 780.456 846.116, 782.011 849.021 C 782.606 850.132, 782.820 851.482, 782.487 852.021 C 782.121 852.613, 783.977 852.994, 787.191 852.985 C 790.111 852.976, 791.951 852.621, 791.280 852.194 C 790.609 851.768, 787.556 846.150, 784.494 839.710 C 781.433 833.269, 778.781 828, 778.602 828 C 778.422 828, 775.867 833.206, 772.925 839.569 M 384.569 832.133 C 385.460 833.857, 388.206 839.594, 390.670 844.883 L 395.150 854.500 397.435 849 C 398.691 845.975, 401.292 840.237, 403.214 836.250 C 406.584 829.261, 406.632 829, 404.568 829 C 403.249 829, 402.370 829.673, 402.282 830.750 C 402.129 832.614, 397.285 844, 396.645 844 C 396.436 844, 394.976 840.625, 393.401 836.500 L 390.538 829 386.743 829 L 382.949 829 384.569 832.133 M 692.815 840.149 C 693.053 848.552, 692.806 851.507, 691.815 852.135 C 691.026 852.636, 692.701 852.944, 696 852.906 C 699.025 852.871, 700.938 852.615, 700.250 852.338 C 698.629 851.684, 698.450 830, 700.066 830 C 700.652 830, 702.002 830.466, 703.066 831.035 C 705.781 832.488, 705.737 838.535, 703.001 840 C 701.026 841.056, 701.033 841.131, 703.499 845.999 C 706.289 851.504, 708.346 853, 713.125 853 C 715.883 853, 716.147 852.809, 714.846 851.750 C 714.001 851.063, 712.250 848.925, 710.953 847 C 709.657 845.075, 708.197 843.223, 707.708 842.885 C 707.220 842.547, 707.986 841.105, 709.410 839.681 C 712.309 836.782, 712.505 835.829, 710.850 832.684 C 709.105 829.369, 708.110 829.032, 700 829.013 L 692.500 828.996 692.815 840.149 M 734.016 835.250 C 737.311 840.444, 737.983 842.373, 737.990 846.667 C 737.996 849.872, 737.526 852.025, 736.750 852.338 C 736.063 852.615, 738.200 852.864, 741.500 852.891 C 746.037 852.927, 747.073 852.691, 745.750 851.920 C 742.403 849.970, 743.481 843.652, 748.480 835.925 C 752.947 829.020, 752.952 829, 750.421 829 C 749.024 829, 748.103 829.358, 748.374 829.796 C 748.645 830.234, 747.610 832.744, 746.074 835.374 L 743.281 840.155 740.641 835.650 C 739.188 833.171, 738 830.661, 738 830.072 C 738 829.482, 736.211 829, 734.025 829 L 730.051 829 734.016 835.250 M 427.685 840.533 C 426.711 842.576, 426.115 844.449, 426.361 844.694 C 426.607 844.940, 428.132 844.997, 429.751 844.821 L 432.695 844.500 431.076 840.660 L 429.457 836.819 427.685 840.533 M 657.730 839.750 C 657.453 840.712, 656.903 842.288, 656.506 843.250 C 655.911 844.696, 656.326 845, 658.893 845 C 662.297 845, 662.577 844.360, 660.839 840.547 C 659.483 837.569, 658.434 837.301, 657.730 839.750 M 774.701 841.500 L 773.032 845 776.623 845 C 779.651 845, 780.101 844.726, 779.494 843.250 C 779.097 842.288, 778.547 840.712, 778.270 839.750 C 777.519 837.138, 776.557 837.609, 774.701 841.500 M 537.676 840.658 C 535.598 842.735, 538.149 849.291, 541.657 850.890 C 544.254 852.073, 549.284 852.383, 550.247 851.420 C 550.566 851.100, 548.954 849.209, 546.664 847.216 C 544.374 845.223, 541.567 842.780, 540.426 841.787 C 539.285 840.794, 538.048 840.286, 537.676 840.658" stroke="none" fill="#bfbfbf" fill-rule="evenodd"/><path d="M 250.546 702.565 C 233.359 755.630, 232.812 757.215, 232.008 756.338 C 230.552 754.748, 208.970 683.492, 208.985 680.321 C 209.002 676.732, 211.200 674, 214.071 674 C 215.132 674, 216 673.550, 216 673 C 216 672.374, 209.833 672, 199.500 672 C 189.167 672, 183 672.374, 183 673 C 183 673.550, 183.922 674, 185.050 674 C 187.777 674, 192 676.266, 194.656 679.155 C 195.959 680.572, 203.619 700.685, 214.020 730 C 223.485 756.675, 231.574 779.138, 231.997 779.917 C 232.480 780.806, 233.032 779.315, 233.479 775.917 C 234.059 771.506, 258.327 695.439, 259.578 694.111 C 259.779 693.898, 260.351 694.798, 260.849 696.111 C 261.584 698.053, 286.516 767.733, 290.328 778.500 C 291.361 781.418, 291.427 781.321, 292.715 775 C 294.481 766.326, 320.729 683.128, 322.622 680.202 C 324.644 677.078, 329.907 674.008, 333.250 674.004 C 334.762 674.002, 336 673.550, 336 673 C 336 672.378, 330.333 672, 321 672 C 311.667 672, 306 672.378, 306 673 C 306 673.550, 306.868 674, 307.929 674 C 310.805 674, 313 676.736, 313 680.322 C 313 683.261, 293.694 752.639, 292.561 753.772 C 291.919 754.414, 292.312 755.462, 276.317 710.500 C 268.882 689.600, 262.442 671.854, 262.006 671.065 C 261.498 670.144, 257.391 681.434, 250.546 702.565 M 702.789 728.896 L 703.079 772.793 700.405 774.896 C 698.934 776.053, 696.441 777, 694.865 777 C 693.289 777, 692 777.450, 692 778 C 692 778.621, 697.500 779, 706.500 779 C 715.500 779, 721 778.621, 721 778 C 721 777.450, 719.630 777, 717.955 777 C 716.054 777, 713.986 776.077, 712.455 774.545 L 710 772.091 710 738.960 L 710 705.830 714.337 709.665 C 716.723 711.774, 734.745 728.741, 754.386 747.368 C 774.027 765.995, 790.257 781.070, 790.453 780.868 C 790.648 780.666, 790.385 776.303, 789.867 771.174 C 789.349 766.045, 789.054 746.543, 789.212 727.836 L 789.500 693.825 792.306 691.412 C 793.849 690.086, 796.211 689, 797.556 689 C 798.900 689, 800 688.550, 800 688 C 800 687.381, 794.667 687, 786 687 C 777.333 687, 772 687.381, 772 688 C 772 688.550, 773.370 689, 775.045 689 C 776.946 689, 779.014 689.923, 780.545 691.455 L 783 693.909 783 726.538 C 783 745.583, 782.623 759.028, 782.095 758.833 C 781.597 758.650, 763.616 741.962, 742.137 721.750 C 720.658 701.538, 702.952 685, 702.792 685 C 702.631 684.999, 702.630 704.753, 702.789 728.896 M 850 686.142 C 830.748 689.323, 815.481 705.485, 813.009 725.304 C 810.284 747.147, 819.457 766.535, 836.480 774.916 C 843.322 778.284, 855.171 781.011, 862.838 780.983 C 875.440 780.936, 891.156 774.919, 900.750 766.469 L 906 761.845 906 750.994 C 906 738.924, 906.835 737, 912.071 737 C 913.682 737, 915 736.550, 915 736 C 915 735.381, 909.667 735, 901 735 C 892.333 735, 887 735.381, 887 736 C 887 736.550, 888.155 737, 889.566 737 C 890.977 737, 893.002 737.466, 894.066 738.035 C 895.817 738.972, 896 740.233, 896 751.366 L 896 763.661 891.750 766.696 C 881.424 774.071, 872.918 776.501, 859.999 775.764 C 837.149 774.461, 823 758.108, 823 733 C 823 714.694, 831.050 700.051, 844.836 693.281 C 850.135 690.679, 851.305 690.503, 863 690.546 C 873.576 690.585, 876.383 690.942, 881.239 692.864 C 889.007 695.939, 895.289 702.345, 898.103 710.064 C 899.304 713.355, 900.457 715.876, 900.667 715.666 C 900.877 715.456, 900.348 710.833, 899.491 705.392 C 897.718 694.132, 897.131 693.329, 888.209 689.952 C 876.634 685.571, 862.182 684.130, 850 686.142 M 364.500 686.976 C 347.920 687.286, 337.908 687.812, 339.952 688.265 C 341.850 688.686, 344.438 690.002, 345.702 691.190 L 348 693.349 348 732.722 L 348 772.095 345.354 774.548 C 343.830 775.960, 341.497 777, 339.854 777 C 338.284 777, 337 777.450, 337 778 C 337 778.645, 347.951 779, 367.854 779 L 398.709 779 402.839 768.318 C 407.072 757.371, 407.685 753.806, 404.157 760.653 C 403.067 762.769, 400.673 765.940, 398.838 767.699 C 393.080 773.219, 389.817 774, 372.532 774 L 357 774 357 755 L 357 736 371.845 736 C 387.983 736, 389.256 736.414, 390.273 742 C 390.523 743.375, 390.728 739.550, 390.728 733.500 C 390.728 727.450, 390.523 723.625, 390.273 725 C 389.256 730.586, 387.983 731, 371.845 731 L 357 731 357 711.500 L 357 692 374.826 692 C 392.166 692, 392.711 692.063, 394.826 694.314 C 396.022 695.587, 397 697.837, 397 699.314 C 397 700.792, 397.450 702, 398 702 C 398.583 702, 399 698.667, 399 694 L 399 686 395.750 686.226 C 393.962 686.351, 379.900 686.688, 364.500 686.976 M 421.877 688.328 C 423.734 689.025, 426.097 690.636, 427.127 691.909 C 428.886 694.081, 429 696.592, 429 733.156 L 429 772.091 426.545 774.545 C 425.195 775.895, 422.945 777, 421.545 777 C 420.145 777, 419 777.450, 419 778 C 419 779.345, 471.472 779.314, 479.787 777.965 C 497.090 775.157, 509.527 765.742, 515.034 751.282 C 517.725 744.216, 518.739 729.871, 517.103 722 C 513.762 705.926, 503.907 695.094, 487.714 689.697 C 482.043 687.807, 478.745 687.601, 450 687.343 C 423.678 687.106, 419.055 687.268, 421.877 688.328 M 534.500 688.160 C 536.150 688.762, 538.513 690.176, 539.750 691.302 L 542 693.349 542 732.720 L 542 772.091 539.545 774.545 C 538.195 775.895, 535.945 777, 534.545 777 C 533.145 777, 532 777.489, 532 778.086 C 532 778.852, 541.193 779.054, 563.250 778.773 C 591.551 778.412, 595.086 778.179, 600.714 776.303 C 609.109 773.505, 614.804 770.022, 619.745 764.661 C 628.320 755.358, 631.556 744.985, 630.797 729.231 C 630.392 720.812, 629.843 718.263, 627.244 712.708 C 621.823 701.124, 613.600 693.992, 600.714 689.697 C 595.042 687.806, 591.750 687.601, 563 687.345 C 539.300 687.135, 532.243 687.336, 534.500 688.160 M 645 688 C 645 688.550, 646.250 689, 647.777 689 C 650.448 689, 654.701 691.234, 656.235 693.442 C 656.639 694.024, 656.969 711.825, 656.969 733 C 656.969 754.175, 656.639 771.976, 656.235 772.558 C 654.701 774.766, 650.448 777, 647.777 777 C 646.250 777, 645 777.450, 645 778 C 645 778.627, 651.333 779, 662 779 C 672.667 779, 679 778.627, 679 778 C 679 777.450, 677.685 777, 676.077 777 C 674.391 777, 671.851 775.904, 670.077 774.411 L 667 771.822 667 733 L 667 694.178 670.077 691.589 C 671.851 690.096, 674.391 689, 676.077 689 C 677.685 689, 679 688.550, 679 688 C 679 687.373, 672.667 687, 662 687 C 651.333 687, 645 687.373, 645 688 M 439 733 L 439 774.145 459.776 773.822 L 480.553 773.500 487.169 770.240 C 498.646 764.586, 504.930 755.275, 507.095 740.718 C 507.959 734.910, 507.959 731.090, 507.095 725.282 C 504.930 710.725, 498.646 701.414, 487.169 695.760 L 480.553 692.500 459.776 692.178 L 439 691.855 439 733 M 552 733 L 552 774.145 572.750 773.822 C 593.195 773.505, 593.592 773.458, 599.747 770.615 C 614.917 763.608, 623.201 745.516, 620.339 725.645 C 618.262 711.228, 611.025 700.594, 599.747 695.385 C 593.592 692.542, 593.195 692.495, 572.750 692.178 L 552 691.855 552 733" stroke="none" fill="#7f7f7f" fill-rule="evenodd"/><path d="M 732.500 232.127 C 702.661 235.855, 674.496 252.326, 655.768 277 C 646.014 289.851, 636.389 313.034, 634.487 328.260 L 633.770 334 644.978 334 C 689.423 334, 731.297 306.186, 748.385 265.313 C 751.864 256.993, 755.591 243.785, 756.446 236.750 L 757.144 231 748.322 231.126 C 743.470 231.196, 736.350 231.646, 732.500 232.127 M 736 235.672 C 727.647 236.513, 719.105 238.300, 712.641 240.558 C 689.240 248.734, 668.513 267.556, 658.058 290.127 C 654.633 297.521, 650.330 311.663, 651.232 312.565 C 651.571 312.904, 657.631 308.502, 664.698 302.782 C 683.802 287.320, 723.167 257.984, 728 255.608 C 730.999 254.133, 693.823 288.735, 674.479 305.423 C 666.241 312.530, 658.825 318.998, 658 319.795 C 656.687 321.064, 657.591 321.174, 665.239 320.672 C 708.214 317.854, 745.215 283.596, 751.412 240.887 L 752.081 236.275 748.291 235.648 C 744.480 235.019, 742.456 235.023, 736 235.672 M 615.479 256.321 C 609.398 262.402, 610.209 271.718, 617.190 275.974 C 630.567 284.130, 643.891 265.659, 631.905 255.574 C 629.508 253.556, 627.761 253, 623.823 253 C 619.467 253, 618.359 253.441, 615.479 256.321 M 508.500 258.044 C 459.941 262.976, 406.725 288.736, 367.265 326.411 C 356.503 336.685, 341.452 354.621, 334.042 366 C 328.050 375.202, 317.609 397.052, 314.691 406.500 C 309.631 422.881, 308.745 429.047, 309.260 444.294 C 309.817 460.801, 311.170 466.566, 317.599 479.829 C 321.433 487.738, 323.521 490.556, 331.311 498.335 C 338.644 505.658, 342.318 508.451, 349.500 512.161 C 360.236 517.706, 371.425 521.348, 384.660 523.604 C 397.491 525.791, 423.964 525.039, 438.426 522.076 C 452.252 519.243, 471.209 513.688, 480.676 509.696 L 488.654 506.331 495.577 512.933 C 514.205 530.696, 532.711 543.359, 558.500 555.991 C 597.155 574.925, 630.514 582.787, 667.500 581.680 C 687.560 581.079, 697.534 579.565, 710.884 575.092 C 728.852 569.073, 742.005 561.113, 752.224 550.075 C 767.753 533.303, 773.881 515.946, 772.710 492.048 C 770.711 451.233, 739.615 406.243, 691 373.826 C 675.642 363.585, 651.043 351.165, 633.750 344.918 L 622 340.674 622 334.902 C 622 324.421, 618.020 310.170, 612.270 300.065 C 600.163 278.787, 577.846 264.419, 548.500 259.009 C 540.101 257.460, 519.209 256.957, 508.500 258.044 M 621.141 264.548 C 619.464 266.680, 619.309 267.589, 620.194 270.126 C 621.287 273.262, 624.385 275.124, 627 274.217 C 629.744 273.264, 632 270.716, 632 268.568 C 632 262.360, 624.923 259.740, 621.141 264.548 M 516.500 263.652 C 477.223 266.758, 443.515 278.788, 407 302.729 C 378.538 321.391, 352.271 347.931, 335.966 374.500 C 326.617 389.734, 317.608 412.887, 316.352 424.908 C 315.435 433.684, 317.954 441.013, 324.133 447.547 C 329.239 452.946, 335.128 456.548, 337.414 455.671 C 338.115 455.403, 339.734 452.329, 341.012 448.841 C 346.474 433.935, 357.018 414.939, 367.843 400.500 C 377.104 388.148, 402.581 362.530, 414 354.090 C 462.167 318.485, 509.202 301, 556.813 301 L 570.279 301 569.660 295.779 C 568.686 287.550, 565.968 281.363, 560.763 275.523 C 554.164 268.119, 547.734 265.214, 535.259 264.001 C 525.599 263.061, 524.286 263.037, 516.500 263.652 M 521.130 270.698 C 518.782 271.166, 518.792 271.203, 522.313 274.835 C 526.174 278.819, 530.653 287.013, 531.625 291.874 L 532.236 294.931 546.868 294.327 C 554.916 293.994, 561.685 293.563, 561.910 293.368 C 562.136 293.173, 561.760 291.142, 561.075 288.856 C 559.302 282.937, 550.883 274.763, 544.468 272.733 C 539.309 271.100, 525.261 269.876, 521.130 270.698 M 574.630 276.705 C 575.109 278.792, 575.440 286.800, 575.368 294.500 C 575.214 310.701, 573.606 318.117, 566.727 334.337 C 555.935 359.785, 537.015 384.994, 513.295 405.531 C 508.233 409.914, 504.071 413.770, 504.045 414.101 C 503.937 415.527, 514.527 428.393, 523.730 438.018 L 533.713 448.456 537.606 445.527 C 544.643 440.232, 567.104 417.661, 573.457 409.500 C 586.647 392.556, 597.990 373.016, 604.599 355.854 C 606.581 350.709, 608.441 346.275, 608.734 346 C 609.763 345.031, 607.876 358.096, 605.892 365.672 C 599.022 391.902, 582.056 419.029, 556.784 444.192 L 544.037 456.884 546.627 458.921 L 549.217 460.958 555.953 454.972 C 575.084 437.969, 595.420 410.786, 604.560 390 C 621.598 351.248, 619.654 316.077, 599.155 292.261 C 592.972 285.077, 589.132 281.974, 579.105 276.062 L 573.761 272.911 574.630 276.705 M 742.826 303.656 C 735.109 308.605, 737.454 320.869, 746.439 322.554 C 756.150 324.376, 762.707 311.770, 755.546 305.044 C 752.408 302.095, 746.299 301.429, 742.826 303.656 M 541.500 307.679 C 526.247 308.986, 502.623 314.499, 486.445 320.527 C 451.979 333.369, 422.244 352.619, 395.450 379.436 C 379.079 395.821, 372.112 404.368, 361.854 420.652 C 353.250 434.307, 343.753 456.193, 345.642 458.009 C 346.114 458.463, 351.278 459.308, 357.117 459.886 C 369.709 461.134, 386.581 459.998, 401.500 456.899 C 418.487 453.370, 449 442.318, 449 439.694 C 449 439.123, 448.270 434.796, 447.378 430.078 C 445.503 420.164, 445.970 405.197, 448.456 395.500 C 450.831 386.239, 458.301 372.281, 464.745 365.063 C 471.728 357.242, 483.570 348.302, 492.720 343.943 C 508.982 336.197, 524.003 332.584, 547.956 330.661 L 562.412 329.500 565.075 321 C 566.540 316.325, 568.031 311.262, 568.389 309.750 L 569.038 307 557.269 307.168 C 550.796 307.261, 543.700 307.490, 541.500 307.679 M 743.571 311.571 C 741.353 313.790, 741.621 316.621, 744.223 318.443 C 745.445 319.299, 746.795 320, 747.223 320 C 748.548 320, 752 316.077, 752 314.571 C 752 312.557, 749.203 310, 747 310 C 745.979 310, 744.436 310.707, 743.571 311.571 M 705.021 338.068 C 697.678 339.990, 687.219 344.446, 683.734 347.136 C 682.094 348.402, 682.309 348.910, 686.734 354.220 C 708.818 380.725, 747.505 388.782, 778.692 373.373 C 782.790 371.348, 786 369.120, 786 368.300 C 786 367.496, 782.037 362.875, 777.193 358.031 C 769.528 350.366, 767.033 348.572, 757.943 344.191 C 752.199 341.423, 744.261 338.448, 740.303 337.579 C 730.287 335.382, 714.445 335.601, 705.021 338.068 M 537 337.630 C 513.141 341.047, 500.962 345.400, 494.392 352.857 C 489.831 358.033, 487.662 364.021, 487.578 371.666 C 487.535 375.607, 487.801 379.133, 488.169 379.501 C 488.537 379.870, 493.262 379.413, 498.669 378.487 C 504.076 377.561, 514.350 376.510, 521.500 376.152 L 534.500 375.500 541.686 366 C 545.638 360.775, 551.180 352.113, 554.001 346.750 L 559.131 337 549.316 337.136 C 543.917 337.211, 538.375 337.433, 537 337.630 M 717.675 341.560 C 713.921 342.402, 708.296 344.258, 705.175 345.684 L 699.500 348.276 702.500 349.129 C 704.150 349.598, 712.475 351.571, 721 353.513 C 738.978 357.608, 760.204 363.129, 759.742 363.591 C 759.209 364.125, 737.514 361.118, 718.707 357.903 C 708.921 356.231, 700.375 355.042, 699.716 355.261 C 697.966 355.845, 707.996 365.246, 714.739 369.342 C 717.918 371.273, 724.115 374.080, 728.510 375.579 C 739.224 379.235, 754.796 379.420, 765.500 376.020 C 772.482 373.802, 781.997 369.087, 781.999 367.845 C 782.001 366.582, 774.747 358.466, 770.329 354.786 C 756.007 342.859, 735.192 337.630, 717.675 341.560 M 621.546 353.445 C 620.649 361.578, 617.488 373.795, 613.817 383.318 C 612.159 387.618, 610.959 391.291, 611.151 391.481 C 611.343 391.671, 614.982 393.209, 619.238 394.898 C 669.037 414.667, 717.557 455.431, 736.861 493.717 L 739.996 499.935 743.440 497.903 C 751.417 493.196, 758.320 482.293, 759.549 472.457 C 760.836 462.151, 755.209 448.735, 741.613 429.696 C 717.711 396.226, 675.921 366.247, 631.357 350.600 L 622.214 347.390 621.546 353.445 M 512.322 349.891 C 506.534 351.851, 501.110 355.633, 498.173 359.757 C 496.376 362.281, 493.438 370.882, 494.184 371.437 C 494.358 371.566, 500.197 370.958, 507.160 370.086 L 519.820 368.500 517.952 365 C 515.861 361.082, 515.481 355.496, 517.028 351.426 C 517.593 349.939, 517.926 348.593, 517.767 348.434 C 517.609 348.275, 515.158 348.931, 512.322 349.891 M 472.318 366.250 C 456.716 382.174, 450.319 401.613, 453.013 424.910 C 459.776 483.385, 524.607 544.656, 603.837 567.452 C 624.606 573.427, 638.780 575.374, 662 575.441 C 682.949 575.501, 688.677 574.865, 703.889 570.784 C 722.218 565.868, 733.100 559.795, 745.610 547.500 C 752.880 540.355, 755.594 536.849, 758.773 530.492 C 764.448 519.148, 766.035 513.088, 766.711 500.185 L 767.304 488.871 759.946 494.406 C 746.921 504.205, 733.236 510.040, 715 513.573 C 700.729 516.337, 672.790 516.119, 655.500 513.109 C 597.052 502.934, 540.471 470.700, 506.874 428.438 C 491.259 408.794, 482.478 389.596, 479.960 369.589 C 479.296 364.315, 478.683 360, 478.598 360 C 478.512 360, 475.687 362.813, 472.318 366.250 M 515 382.683 C 509.512 383.089, 491.931 385.924, 490.884 386.572 C 489.996 387.120, 493.142 394.988, 497.543 403.224 L 500.648 409.035 514.574 395.566 L 528.500 382.098 524 382.224 C 521.525 382.293, 517.475 382.499, 515 382.683 M 601.642 408.297 C 590.556 426.930, 572.762 448.912, 560.195 459.500 L 554.260 464.500 563.880 470.817 C 569.171 474.291, 580.475 480.603, 589 484.843 C 625.839 503.166, 667.767 512.267, 700.985 509.150 C 713.246 508, 728.232 505.017, 732.070 502.963 C 733.971 501.945, 733.967 501.855, 731.876 497.714 C 718.661 471.535, 688.596 440.658, 657.500 421.328 C 645.632 413.951, 631.855 406.756, 619.705 401.590 C 613.768 399.065, 608.788 397, 608.637 397 C 608.487 397, 605.339 402.084, 601.642 408.297 M 324.307 418.750 C 322.108 429.274, 325.001 440.728, 330.922 444.945 L 333.673 446.903 338.587 435.732 C 341.289 429.588, 343.650 424.210, 343.833 423.781 C 344.017 423.351, 342.510 423, 340.484 423 C 335.976 423, 330.579 420.552, 328.079 417.373 C 325.595 414.215, 325.227 414.349, 324.307 418.750 M 468.788 429.690 C 468.124 431.235, 467.583 436.550, 467.586 441.500 C 467.590 448.899, 468.052 451.613, 470.181 456.755 C 477.829 475.222, 501.235 502.777, 523.409 519.417 C 557.110 544.706, 599.106 562.193, 639 567.551 C 660.877 570.489, 688.063 568.791, 705.047 563.425 C 713.882 560.634, 722.380 557.047, 721.721 556.387 C 721.476 556.142, 717.276 556.676, 712.388 557.573 C 700.311 559.791, 669.074 560.590, 654.762 559.049 C 587.078 551.759, 529.448 515.032, 486.787 452 C 482.134 445.125, 476.876 436.922, 475.102 433.771 C 471.106 426.671, 470.308 426.155, 468.788 429.690 M 738.692 445.884 C 737.600 449.810, 735.298 454.143, 731.957 458.556 L 726.882 465.262 730.922 470.881 C 733.144 473.972, 736.639 479.313, 738.689 482.750 C 740.738 486.188, 742.725 489, 743.104 489 C 744.584 489, 749.857 481.971, 751.105 478.336 C 751.829 476.226, 752.407 471.770, 752.390 468.432 C 752.357 462.005, 749.568 454.695, 743.339 444.709 L 740.351 439.918 738.692 445.884 M 440.069 451.074 C 397.022 469.242, 353.817 471.603, 323.206 457.459 L 315.777 454.027 316.477 458.764 C 317.469 465.472, 321.987 476.635, 326.401 483.285 C 331.482 490.939, 343.204 501.672, 351.488 506.253 C 380.499 522.297, 423.070 523.166, 465.864 508.588 C 471.164 506.783, 477.479 504.440, 479.899 503.382 L 484.298 501.457 481.899 498.740 L 479.500 496.022 470.172 499.560 C 445.850 508.785, 414.414 513.779, 396.815 511.214 C 386.945 509.776, 377.724 505.676, 372.682 500.484 C 370.657 498.399, 369 496.312, 369 495.847 C 369 495.381, 375.863 494.995, 384.250 494.989 C 408.645 494.972, 433.828 491.679, 456.854 485.495 C 469.829 482.010, 469.461 482.382, 465.773 476.489 C 461.767 470.090, 454.600 455.596, 453.047 450.750 C 452.386 448.688, 451.317 447.021, 450.672 447.047 C 450.028 447.072, 445.256 448.885, 440.069 451.074 M 464.500 533.631 C 460.650 534.438, 452.948 537.305, 447.383 540.002 C 430.746 548.066, 416.554 563.224, 410.023 579.904 C 407.249 586.991, 405 597.866, 405 604.195 L 405 609.258 410.914 608.589 C 444.390 604.802, 470.583 580.832, 477.421 547.729 C 478.289 543.525, 479 538.265, 479 536.042 C 479 532.023, 478.978 532, 475.250 532.082 C 473.188 532.126, 468.350 532.824, 464.500 533.631 M 497.327 538.721 C 496.132 538.940, 493.994 540.279, 492.577 541.696 C 488.720 545.553, 488.932 552.086, 493.048 556.202 C 495.798 558.952, 496.552 559.198, 500.765 558.723 C 504.172 558.339, 506.051 557.479, 507.717 555.543 C 513.978 548.264, 506.991 536.953, 497.327 538.721 M 456 543.507 C 434.693 548.701, 417.137 565.178, 410.489 586.223 C 408.999 590.941, 408 596.491, 408 600.052 C 408 605.920, 408.038 606, 410.840 606 C 416.107 606, 429.052 602.082, 436.300 598.294 C 444.728 593.890, 455.824 583.277, 460.762 574.899 C 464.966 567.766, 468.048 558.937, 468.757 552 L 469.319 546.500 451.224 564.103 C 433.645 581.204, 420.980 592.538, 423.973 588.492 C 427.301 583.990, 448.354 559.865, 456.472 551.250 C 465.768 541.385, 465.752 541.130, 456 543.507 M 494.980 546.038 C 492.684 550.327, 496.673 554.316, 500.962 552.020 C 503.215 550.815, 503.674 547.074, 501.800 545.200 C 499.926 543.326, 496.185 543.785, 494.980 546.038" stroke="none" fill="#a0a03b" fill-rule="evenodd"/><path d="M 0 549.501 L 0 1099.002 549.750 1098.751 L 1099.500 1098.500 1099.751 549.250 L 1100.002 0 550.001 0 L 0 0 0 549.501 M 0.496 550 C 0.496 852.225, 0.611 975.862, 0.750 824.750 C 0.889 673.637, 0.889 426.362, 0.750 275.250 C 0.611 124.137, 0.496 247.775, 0.496 550 M 726.655 232.597 C 686.444 239.862, 651.446 270.292, 638.974 308.834 C 635.151 320.648, 632.896 333.209, 634.413 334.235 C 636.015 335.317, 647.225 335.151, 657.500 333.891 C 700.420 328.632, 738.515 297.586, 751.864 256.987 C 754.386 249.315, 756.958 237.641, 756.983 233.750 L 757 231 745.750 231.090 C 739.563 231.139, 730.970 231.817, 726.655 232.597 M 727.660 237.048 C 708.138 240.324, 689.331 250.504, 675.348 265.363 C 666.707 274.545, 662.553 280.891, 657.466 292.681 C 654.262 300.108, 650.636 311.969, 651.351 312.684 C 651.534 312.868, 658.843 307.308, 667.592 300.330 C 684.681 286.701, 713.119 265.358, 724.500 257.620 L 731.500 252.861 720 264.077 C 706.762 276.987, 685.406 296.394, 669.500 309.967 C 663.450 315.129, 658.050 319.774, 657.500 320.287 C 655.846 321.832, 671.668 320.005, 681.511 317.516 C 717.747 308.350, 745.347 278.184, 750.832 241.750 L 751.697 236 742.099 236.118 C 736.819 236.182, 730.322 236.601, 727.660 237.048 M 618.121 253.710 C 613.076 256.196, 610.798 260.455, 611.316 266.438 C 611.672 270.560, 612.340 271.924, 615.357 274.688 C 618.415 277.491, 619.720 278, 623.850 278 C 637.424 278, 641.897 260.241, 629.938 253.827 C 625.742 251.577, 622.517 251.545, 618.121 253.710 M 509.500 257.591 C 507.850 257.823, 502.900 258.498, 498.500 259.090 C 454.679 264.988, 403.387 291.201, 367.639 325.966 C 336.544 356.206, 318.583 385.525, 310.954 418.500 C 307.500 433.427, 307.697 453.044, 311.424 465.463 C 315.072 477.614, 320.029 486.668, 327.753 495.283 C 336.010 504.494, 342.266 509.199, 353.500 514.648 C 369.367 522.344, 395.121 526.948, 414.500 525.552 C 434.609 524.104, 461.807 517.812, 480.271 510.336 L 489.114 506.756 497.307 514.688 C 521.770 538.371, 556.129 558.564, 592 570.339 C 619.369 579.324, 636.815 582.311, 661.500 582.241 C 688.557 582.165, 705.980 578.787, 724.671 569.997 C 742.233 561.738, 751.694 553.750, 761.646 538.780 C 776.181 516.916, 777.205 486.186, 764.411 455.789 C 754.378 431.951, 732.845 405.205, 707.423 385.003 C 686.688 368.526, 655.966 351.814, 631.318 343.606 L 623.274 340.927 622.131 330.870 C 619.848 310.794, 613.308 297.090, 599.476 283.398 C 591.354 275.358, 588.953 273.645, 578.891 268.706 C 561.966 260.399, 550.924 257.891, 529.500 257.489 C 520.150 257.313, 511.150 257.359, 509.500 257.591 M 622.223 263.557 C 617.892 266.590, 620.451 274, 625.829 274 C 628.550 274, 632 270.646, 632 268 C 632 265.521, 628.609 262, 626.223 262 C 625.245 262, 623.445 262.701, 622.223 263.557 M 501.314 265.555 C 443.153 274.038, 383.149 310.575, 346.625 359.746 C 324.599 389.399, 312.288 423.787, 318.433 438.494 C 319.318 440.612, 321.556 444.193, 323.407 446.452 C 327.008 450.847, 336.688 456.786, 337.927 455.361 C 338.339 454.887, 339.702 451.575, 340.957 448 C 344.009 439.299, 353.752 420.262, 359.893 411 C 394.447 358.889, 457.745 316.419, 518.759 304.408 C 532.370 301.728, 553.159 300, 562.750 300.751 L 569 301.240 569 296.655 C 569 282.430, 558.336 269.406, 543.530 265.550 C 536.152 263.628, 514.506 263.631, 501.314 265.555 M 521.135 273.716 C 525.718 278.804, 529.457 285.238, 531.113 290.888 L 532.399 295.275 541.950 294.643 C 547.202 294.295, 554.056 294.008, 557.180 294.005 L 562.860 294 561.976 290.916 C 560.557 285.968, 556.217 279.265, 552.728 276.632 C 546.878 272.218, 542.110 270.915, 529.500 270.282 L 517.500 269.680 521.135 273.716 M 575.197 278.250 C 576.619 284.390, 575.552 309.273, 573.558 316.500 C 565.076 347.225, 542.213 381.392, 513.750 405.873 C 508.938 410.013, 505 413.895, 505 414.500 C 505 417.076, 528.177 443.686, 532.380 445.936 C 534.748 447.203, 535.289 446.929, 542.690 440.714 C 570.009 417.769, 592.556 386.122, 605.179 353 C 610.373 339.374, 611.129 339.955, 608.433 355.500 C 603.121 386.128, 587.431 413.428, 557.988 443.267 C 544.408 457.031, 544.405 457.035, 546.744 458.568 C 548.941 460.007, 549.317 459.917, 552.867 457.105 C 554.948 455.457, 560.948 449.631, 566.201 444.158 C 587.242 422.237, 602.336 398.306, 609.821 375 C 614.491 360.462, 615.438 354.615, 615.414 340.500 C 615.387 325.386, 613.283 316.161, 607.212 304.545 C 602.637 295.793, 590.063 282.795, 581.196 277.655 C 577.729 275.645, 574.740 274, 574.553 274 C 574.366 274, 574.655 275.913, 575.197 278.250 M 741.077 305.077 C 734.426 311.728, 738.891 323, 748.177 323 C 751.419 323, 752.860 322.340, 755.600 319.600 C 762.555 312.645, 758.182 302.075, 748.327 302.022 C 744.984 302.004, 743.542 302.612, 741.077 305.077 M 542.500 307.973 C 497.398 311.766, 447.608 333.830, 408 367.575 C 381.440 390.204, 357.448 422.957, 347.987 449.500 C 347.007 452.250, 345.906 455.236, 345.539 456.136 C 344.987 457.493, 345.967 457.963, 351.269 458.886 C 369.943 462.138, 399.337 458.674, 424 450.314 C 430.611 448.073, 448.103 441.195, 448.736 440.587 C 448.866 440.463, 448.304 436.865, 447.486 432.592 C 439.116 388.843, 462.703 352.129, 508.876 337.041 C 519.694 333.505, 534.996 331.001, 550.253 330.269 L 562.006 329.705 564.388 322.103 C 565.698 317.921, 567.082 313.038, 567.464 311.250 L 568.159 308 563.329 307.989 C 560.673 307.983, 556.925 307.807, 555 307.597 C 553.075 307.387, 547.450 307.557, 542.500 307.973 M 744.278 311.250 C 740.620 315.977, 743.886 320.516, 749.418 318.393 C 751.287 317.676, 751.538 312.938, 749.800 311.200 C 748.241 309.641, 745.503 309.666, 744.278 311.250 M 712.803 336.014 C 703.218 337.529, 686.818 343.722, 682.136 347.594 C 681.194 348.373, 686.679 355.406, 692.409 360.766 C 716.231 383.050, 750.134 388.037, 778.997 373.502 C 782.767 371.603, 786.094 369.656, 786.392 369.175 C 787.135 367.972, 778.943 358.507, 772.184 352.760 C 765.101 346.737, 753.549 340.713, 744.012 338.071 C 735.365 335.674, 720.959 334.725, 712.803 336.014 M 540.500 337.670 C 532.288 338.356, 517.360 341.337, 510.567 343.647 C 501.604 346.696, 496.880 349.848, 493.229 355.218 C 489.164 361.196, 488 365.215, 488 373.274 L 488 380.250 491.250 379.554 C 502.143 377.221, 512.890 376.007, 522.672 376.004 L 533.844 376 540.895 366.434 C 547.715 357.182, 558 340.096, 558 338.017 C 558 337.050, 549.860 336.889, 540.500 337.670 M 715 342.437 C 712.525 343.129, 708.099 344.736, 705.164 346.008 L 699.827 348.321 718.666 352.553 C 747.189 358.960, 771.539 365.812, 761 364.466 C 746.635 362.631, 719.635 358.576, 710.642 356.903 C 704.670 355.792, 699.589 355.078, 699.351 355.316 C 699.113 355.554, 701.876 358.458, 705.491 361.771 C 720.877 375.869, 742.798 381.295, 763.244 376.065 C 770.760 374.143, 780.297 369.946, 781.473 368.044 C 781.811 367.497, 778.805 363.734, 774.794 359.683 C 761.920 346.681, 747.905 340.925, 729.520 341.089 C 724.009 341.139, 717.475 341.745, 715 342.437 M 511.324 349.638 C 503.048 352.570, 494.088 362.985, 494.022 369.750 C 493.997 372.339, 494.024 372.343, 504 371.015 C 508.125 370.466, 513.568 369.771, 516.095 369.470 L 520.690 368.924 518.345 364.293 C 515.681 359.031, 515.536 357.047, 517.426 351.750 C 518.990 347.369, 518.351 347.148, 511.324 349.638 M 622.602 348.731 C 622.271 349.062, 621.990 350.721, 621.978 352.417 C 621.947 356.943, 618.546 371.390, 615.486 380 C 611.134 392.246, 610.968 391.356, 618.096 393.955 C 638.242 401.300, 669.900 420.220, 690.067 436.965 C 707.796 451.686, 728.788 476.704, 736.883 492.760 L 740.039 499.021 743.894 497.054 C 748.471 494.719, 752.131 490.582, 755.791 483.607 C 758.147 479.117, 758.472 477.351, 758.485 468.985 C 758.499 460.286, 758.226 458.913, 755.304 452.985 C 733.898 409.552, 686.444 370.449, 631.684 351.121 C 627.020 349.475, 622.934 348.400, 622.602 348.731 M 472.311 366.327 C 464.927 374.221, 459.834 382.620, 456.195 392.904 C 453.706 399.941, 453.512 401.642, 453.570 416 C 453.627 429.941, 453.908 432.400, 456.370 440.451 C 475.892 504.284, 551.526 560.973, 634 573.587 C 649.344 575.934, 676.907 575.940, 689.828 573.601 C 700.692 571.633, 717.402 566.350, 725.103 562.448 C 733.220 558.334, 743.886 550.062, 749.644 543.413 C 754.915 537.326, 761.919 524.625, 763.933 517.500 C 765.680 511.319, 767.027 498.023, 766.342 493.734 L 765.724 489.875 762.612 492.833 C 758.435 496.803, 749.299 502.501, 741.504 505.998 C 712.417 519.049, 669.363 519.356, 627 506.816 C 586.930 494.955, 549.359 473.129, 522.115 445.885 C 496.584 420.354, 482.667 395.374, 479.646 369.660 L 478.480 359.732 472.311 366.327 M 501 384.846 C 489.686 386.816, 489.754 386.610, 496.173 399.501 L 500.350 407.887 503.193 405.863 C 504.757 404.749, 510.865 399.168, 516.768 393.460 L 527.500 383.082 519 383.137 C 514.325 383.167, 506.225 383.936, 501 384.846 M 603.001 406.998 C 593.130 424.247, 577.142 444.252, 562.290 457.937 L 554.902 464.745 563.201 470.074 C 582.816 482.669, 612.244 495.855, 634 501.796 C 667.618 510.976, 702.106 511.737, 727.687 503.863 L 733.875 501.958 729.810 494.729 C 711.469 462.108, 679.789 432.831, 640 411.733 C 630.358 406.620, 610.874 398, 608.959 398 C 608.514 398, 605.833 402.049, 603.001 406.998 M 324.105 418.948 C 321.813 429.635, 323.214 437.017, 328.683 443.071 C 330.635 445.232, 332.745 447, 333.371 447 C 333.998 447, 335.586 444.188, 336.902 440.750 C 338.217 437.313, 340.584 431.913, 342.161 428.750 L 345.029 423 341.579 423 C 336.643 423, 333.025 421.391, 328.855 417.340 L 325.209 413.798 324.105 418.948 M 468.609 430.020 C 464.627 439.971, 467.664 455.610, 476.144 468.819 C 496.296 500.211, 524.228 524.545, 562.265 543.845 C 595.326 560.620, 629.344 569.245, 662.500 569.257 C 680.327 569.264, 692.898 567.576, 706.156 563.396 C 713.456 561.094, 726 555.564, 726 554.647 C 726 554.469, 722.288 555.116, 717.750 556.086 C 679.150 564.338, 631.635 559.193, 592.642 542.537 C 545.895 522.571, 504.663 484.229, 475.114 433.250 C 472.803 429.262, 470.755 426, 470.564 426 C 470.373 426, 469.493 427.809, 468.609 430.020 M 739.095 443.538 C 737.450 450.069, 734.546 455.452, 730.016 460.367 L 726.174 464.535 733.996 476.244 C 738.298 482.684, 742.018 488.526, 742.263 489.226 C 742.944 491.175, 746.230 487.831, 749.454 481.907 C 753.014 475.366, 753.851 467.077, 751.626 460.380 C 750.732 457.687, 747.814 451.731, 745.143 447.145 L 740.286 438.806 739.095 443.538 M 438.500 452.145 C 425.149 457.662, 414.865 460.754, 398.500 464.171 C 389.107 466.133, 384.652 466.458, 368 466.402 C 346.224 466.328, 340.134 465.222, 324.648 458.527 C 320.229 456.616, 316.494 455.173, 316.347 455.320 C 315.769 455.898, 318.984 467.797, 320.971 472.433 C 337.301 510.529, 385.962 527.133, 443.848 514.360 C 453.558 512.217, 469.101 507.361, 480.670 502.856 L 483.839 501.622 481.678 499.012 L 479.516 496.402 472.257 499.220 C 460.846 503.651, 441.683 508.816, 430.487 510.479 C 415.390 512.721, 396.841 512.504, 388.704 509.990 C 381.307 507.706, 373.772 502.955, 370.326 498.404 L 367.982 495.309 388.241 494.679 C 408.793 494.040, 428.053 491.794, 444.500 488.118 C 455.190 485.729, 466.856 482.477, 467.673 481.660 C 467.995 481.339, 466.883 478.921, 465.203 476.288 C 461.903 471.115, 455.144 457.658, 453.004 452 C 452.275 450.075, 451.414 448.204, 451.090 447.843 C 450.765 447.481, 445.100 449.417, 438.500 452.145 M 471.732 532.111 C 444.635 535.021, 419.928 554.230, 409.521 580.478 C 406.719 587.543, 404.099 599.685, 404.035 605.894 L 404 609.289 411.250 608.724 C 420.440 608.009, 432.642 604.132, 440.989 599.276 C 449.728 594.191, 463.663 580.269, 468.791 571.500 C 471.042 567.650, 474.087 560.900, 475.557 556.500 C 478.109 548.863, 480.384 533.119, 479.106 531.942 C 478.773 531.636, 475.454 531.712, 471.732 532.111 M 494.304 539.956 C 486.029 545.002, 488.951 558.318, 498.500 559.072 C 502.494 559.388, 503.900 558.955, 506.794 556.520 C 512.297 551.890, 511.404 542.812, 505.128 539.566 C 501.113 537.490, 498.175 537.596, 494.304 539.956 M 457.104 543.602 C 439.744 547.217, 422.911 560.263, 415.062 576.186 C 410.946 584.536, 408.050 595.257, 408.017 602.262 L 408 606.024 412.250 605.423 C 425.748 603.516, 435.197 599.791, 444.617 592.660 C 451.928 587.127, 456.597 581.622, 461.418 572.851 C 464.743 566.801, 469 553.244, 469 548.702 C 469 547.314, 463.400 552.210, 450.228 565.112 C 433.001 581.987, 418.289 595.228, 422.056 590.467 C 427.761 583.257, 448.377 559.656, 455.602 552.063 C 460.374 547.049, 464.104 542.794, 463.890 542.608 C 463.675 542.422, 460.622 542.870, 457.104 543.602 M 496.200 545.200 C 494.470 546.930, 494.725 550.747, 496.642 551.820 C 500.903 554.204, 505.365 548.203, 501.456 545.344 C 499.185 543.684, 497.756 543.644, 496.200 545.200 M 246.554 713.047 C 238.826 736.943, 232.320 755.517, 231.930 754.797 C 231.543 754.084, 226.142 737.178, 219.928 717.229 C 207.481 677.275, 207.359 676.434, 213.761 674.543 C 215.542 674.017, 217 673.229, 217 672.793 C 217 672.357, 209.125 672, 199.500 672 C 188.500 672, 182 672.371, 182 673 C 182 673.550, 182.918 674, 184.040 674 C 187.080 674, 193.488 677.563, 195.177 680.192 C 195.992 681.462, 204.498 704.656, 214.079 731.736 C 223.661 758.816, 232 780.979, 232.610 780.986 C 233.221 780.994, 233.965 778.638, 234.264 775.750 C 234.833 770.250, 258.980 694.646, 259.879 695.546 C 260.164 695.831, 267.171 715.027, 275.449 738.204 C 283.727 761.382, 290.999 780.508, 291.608 780.708 C 292.278 780.928, 292.963 778.980, 293.341 775.786 C 293.945 770.668, 320.514 684.646, 322.822 680.332 C 324.025 678.086, 331.440 674, 334.316 674 C 335.242 674, 336 673.550, 336 673 C 336 672.376, 330.167 672, 320.500 672 C 306.030 672, 300.993 672.949, 308.011 674.352 C 309.927 674.735, 311.448 675.889, 312.194 677.526 C 313.213 679.763, 312.016 684.837, 302.985 716.551 C 297.276 736.601, 292.316 752.667, 291.962 752.253 C 291.609 751.839, 284.835 733.170, 276.910 710.766 C 268.984 688.362, 262.045 670.024, 261.488 670.016 C 260.932 670.007, 254.212 689.371, 246.554 713.047 M 392 686.051 C 389.525 686.491, 376.137 686.885, 362.250 686.926 C 346.133 686.973, 337 687.362, 337 688 C 337 688.550, 338.300 689, 339.889 689 C 341.478 689, 343.841 689.860, 345.139 690.912 L 347.500 692.823 347.500 732.307 C 347.500 769.601, 347.395 771.906, 345.613 773.875 C 344.575 775.022, 342.212 776.245, 340.363 776.592 C 338.513 776.939, 337 777.629, 337 778.126 C 337 778.649, 350.120 778.917, 368.233 778.764 L 399.465 778.500 403.386 768.237 C 405.543 762.592, 406.952 757.642, 406.517 757.237 C 406.082 756.832, 405.522 757.073, 405.272 757.773 C 403.790 761.929, 397.940 768.787, 394 770.987 C 389.821 773.321, 388.377 773.524, 373.750 773.838 L 358 774.176 358 755.088 L 358 736 372 736 C 384.667 736, 386.190 736.190, 388 738 C 389.100 739.100, 390 741.152, 390 742.559 C 390 744.010, 390.433 744.851, 391 744.500 C 392.242 743.733, 392.344 723.331, 391.110 722.568 C 390.620 722.265, 389.926 723.583, 389.567 725.497 C 389.208 727.410, 388.063 729.431, 387.023 729.988 C 385.983 730.545, 379.027 731, 371.566 731 L 358 731 358 711.500 L 358 692 374.777 692 C 393.647 692, 395.448 692.540, 396.571 698.529 C 397.743 704.776, 399 702.175, 399 693.500 C 399 687.300, 398.662 685.034, 397.750 685.125 C 397.063 685.194, 394.475 685.611, 392 686.051 M 702.828 727.122 C 703.008 750.290, 702.889 770.307, 702.563 771.605 C 701.929 774.133, 697.404 777, 694.050 777 C 692.922 777, 692 777.450, 692 778 C 692 778.621, 697.500 779, 706.500 779 C 715.500 779, 721 778.621, 721 778 C 721 777.450, 719.840 777, 718.423 777 C 716.908 777, 714.641 775.795, 712.923 774.077 L 710 771.154 710 739.077 C 710 721.435, 710.247 707, 710.550 707 C 710.852 707, 728.702 723.650, 750.215 744 C 771.729 764.350, 789.594 781, 789.915 781 C 790.237 781.001, 790.353 762.045, 790.172 738.878 C 789.992 715.710, 790.111 695.693, 790.437 694.395 C 791.071 691.867, 795.596 689, 798.950 689 C 800.078 689, 801 688.550, 801 688 C 801 687.378, 795.333 687, 786 687 C 776.667 687, 771 687.378, 771 688 C 771 688.550, 772.325 689, 773.944 689 C 775.614 689, 778.103 690.044, 779.694 691.412 L 782.500 693.825 782.790 726.624 L 783.080 759.424 780.399 756.962 C 778.924 755.608, 761.058 738.862, 740.695 719.750 C 720.332 700.638, 703.408 685, 703.086 685 C 702.764 684.999, 702.647 703.955, 702.828 727.122 M 846.773 686.555 C 825.425 691.730, 812 709.661, 812 733 C 812 762.010, 831.926 780.929, 862.540 780.985 C 876.992 781.012, 891.139 775.765, 900.509 766.903 L 906 761.710 906 751.355 C 906 742.333, 906.258 740.742, 908 739 C 909.100 737.900, 911.125 737, 912.500 737 C 913.875 737, 915 736.550, 915 736 C 915 735.381, 909.667 735, 901 735 C 892.333 735, 887 735.381, 887 736 C 887 736.550, 888.025 737, 889.277 737 C 890.530 737, 892.555 737.701, 893.777 738.557 C 895.852 740.010, 896 740.868, 896 751.468 L 896 762.822 892.851 765.472 C 877.018 778.795, 850.524 779.057, 835.695 766.037 C 828.497 759.717, 823.655 746.432, 823.655 733 C 823.655 703.564, 842.039 686.872, 870.097 690.831 C 886.950 693.209, 895.003 700.027, 899.603 715.813 C 899.814 716.536, 900.364 716.893, 900.827 716.607 C 901.553 716.158, 900.039 703.123, 898.453 696.169 C 897.765 693.154, 888.266 688.756, 877.746 686.583 C 868.500 684.673, 854.588 684.660, 846.773 686.555 M 418 687.927 C 418 688.517, 419.350 689, 421 689 C 424.334 689, 427.650 691.746, 428.515 695.225 C 428.827 696.476, 428.950 714.302, 428.791 734.837 L 428.500 772.175 425.694 774.587 C 424.151 775.914, 421.789 777, 420.444 777 C 419.100 777, 418 777.483, 418 778.073 C 418 778.822, 427.884 779.038, 450.750 778.790 C 483.058 778.439, 483.590 778.400, 490.145 775.880 C 510.854 767.917, 521.657 748.177, 518.053 724.886 C 515.347 707.394, 506.035 695.986, 489.419 689.808 C 483.857 687.739, 481.526 687.584, 450.750 687.231 C 427.871 686.968, 418 687.178, 418 687.927 M 531 688 C 531 688.550, 532.300 689, 533.889 689 C 535.478 689, 537.841 689.860, 539.139 690.911 L 541.500 692.822 541.784 731.954 L 542.067 771.086 539.111 774.043 C 537.365 775.789, 535.098 777, 533.577 777 C 532.160 777, 531 777.450, 531 778 C 531 778.645, 541.763 779, 561.290 779 C 594.132 779, 598.188 778.514, 608.987 773.280 C 629.922 763.135, 638.130 733.834, 626.583 710.470 C 620.912 698.997, 611.353 691.710, 597.769 688.508 C 590.231 686.730, 531 686.280, 531 688 M 645 688 C 645 688.550, 645.922 689, 647.050 689 C 649.941 689, 654.751 691.666, 655.970 693.945 C 656.624 695.165, 657 709.445, 657 733 C 657 756.555, 656.624 770.835, 655.970 772.055 C 654.751 774.334, 649.941 777, 647.050 777 C 645.922 777, 645 777.450, 645 778 C 645 778.629, 651.500 779, 662.500 779 C 679.048 779, 684.734 778.013, 676.120 776.635 C 673.986 776.294, 671.173 775.152, 669.870 774.097 L 667.500 772.178 667.200 735.839 C 667.034 715.853, 667.171 698.016, 667.504 696.202 C 668.198 692.419, 672.813 689.010, 677.250 689.004 C 678.763 689.002, 680 688.550, 680 688 C 680 687.371, 673.500 687, 662.500 687 C 651.500 687, 645 687.371, 645 688 M 439 733 L 439 774 455.951 774 C 480.741 774, 488.560 771.732, 497.304 762.007 C 504.544 753.954, 506.423 747.976, 506.423 733 C 506.423 718.024, 504.544 712.046, 497.304 703.993 C 488.560 694.268, 480.741 692, 455.951 692 L 439 692 439 733 M 552 733 L 552 774 568.864 774 C 578.138 774, 588.005 773.568, 590.789 773.040 C 609.608 769.471, 619.976 755.247, 619.976 733 C 619.976 710.753, 609.608 696.529, 590.789 692.960 C 588.005 692.432, 578.138 692, 568.864 692 L 552 692 552 733 M 539.465 824.952 C 535.909 826.393, 534.700 828.723, 535.276 833.024 C 535.704 836.212, 535.446 837.226, 534.012 837.994 C 531.126 839.538, 530.002 844.100, 531.582 847.858 C 533.443 852.284, 538.577 854.342, 545.916 853.604 C 548.987 853.296, 554.425 853.066, 558 853.095 L 564.500 853.146 561 850.776 C 557.678 848.527, 557.518 848.154, 557.851 843.453 C 558.045 840.729, 558.662 837.938, 559.224 837.250 C 560.016 836.281, 559.151 836.007, 555.372 836.030 C 551.786 836.053, 550.932 836.313, 552.138 837.018 C 553.944 838.072, 555.409 842.530, 554.456 844.071 C 553.714 845.271, 544.018 836.755, 542.149 833.262 C 538.803 827.007, 546.197 822.987, 549.888 829.055 L 551.746 832.111 552.241 829.520 C 553.107 824.989, 545.810 822.380, 539.465 824.952 M 604.250 825.080 C 605.773 825.967, 606 827.767, 606 838.966 C 606 848.324, 605.659 851.971, 604.750 852.338 C 604.063 852.615, 607.677 852.878, 612.782 852.921 C 618.765 852.972, 623.289 852.488, 625.510 851.560 C 630.146 849.623, 632.992 844.735, 632.996 838.700 C 633.005 827.934, 627.421 824.039, 612 824.052 C 605.066 824.059, 602.973 824.336, 604.250 825.080 M 355.808 838.154 C 356.042 848.168, 355.803 851.509, 354.808 852.140 C 354.031 852.632, 355.938 852.969, 359.500 852.969 C 363.062 852.969, 364.969 852.632, 364.192 852.140 C 363.197 851.509, 362.958 848.168, 363.192 838.154 L 363.500 824.996 359.500 824.996 L 355.500 824.996 355.808 838.154 M 612 838.500 L 612 851 616.500 851 C 621.892 851, 624.410 848.905, 625.968 843.121 C 628.389 834.129, 623.630 826, 615.944 826 L 612 826 612 838.500 M 425.500 839.194 C 422.750 845.328, 419.905 850.943, 419.179 851.673 C 418.082 852.774, 418.389 853, 420.988 853 C 422.776 853, 423.859 852.580, 423.513 852.021 C 423.180 851.482, 423.394 850.132, 423.989 849.021 C 425.544 846.116, 433.577 846.093, 434.497 848.991 C 434.845 850.086, 434.848 851.436, 434.506 851.991 C 434.115 852.623, 435.957 853, 439.441 853 C 444.747 853, 444.920 852.920, 443.240 851.240 C 442.273 850.273, 439.257 844.648, 436.540 838.740 C 433.822 832.833, 431.352 828.009, 431.050 828.021 C 430.747 828.032, 428.250 833.060, 425.500 839.194 M 462.840 839.148 C 463.074 846.690, 462.803 850.532, 461.967 851.540 C 460.933 852.786, 461.463 853, 465.578 853 C 469.328 853, 470.133 852.733, 469.200 851.800 C 467.986 850.586, 467.456 838, 468.619 838 C 468.959 838, 473.208 841.625, 478.061 846.055 L 486.884 854.111 487.192 841.553 L 487.500 828.996 484 828.996 L 480.500 828.995 480.835 836.670 L 481.170 844.345 475.080 839.070 C 471.731 836.168, 468.754 833.411, 468.465 832.944 C 468.176 832.476, 466.716 831.221, 465.220 830.155 L 462.500 828.216 462.840 839.148 M 655.643 838.760 C 652.971 844.667, 649.884 850.288, 648.782 851.250 C 646.821 852.963, 646.857 853, 650.448 853 C 652.588 853, 653.866 852.592, 653.513 852.021 C 653.180 851.482, 653.394 850.132, 653.989 849.021 C 655.544 846.116, 663.577 846.093, 664.497 848.991 C 664.845 850.086, 664.848 851.436, 664.506 851.991 C 664.114 852.625, 666.019 853, 669.632 853 C 674.452 853, 675.113 852.798, 673.721 851.750 C 672.807 851.063, 669.584 845.438, 666.558 839.250 C 663.533 833.063, 660.932 828.004, 660.779 828.010 C 660.625 828.015, 658.314 832.852, 655.643 838.760 M 772.925 839.569 C 769.983 845.932, 766.883 851.544, 766.038 852.039 C 764.932 852.686, 765.569 852.948, 768.309 852.970 C 770.623 852.988, 771.873 852.604, 771.494 851.991 C 771.152 851.436, 771.155 850.086, 771.503 848.991 C 772.423 846.093, 780.456 846.116, 782.011 849.021 C 782.606 850.132, 782.820 851.482, 782.487 852.021 C 782.121 852.613, 783.977 852.994, 787.191 852.985 C 790.111 852.976, 791.951 852.621, 791.280 852.194 C 790.609 851.768, 787.556 846.150, 784.494 839.710 C 781.433 833.269, 778.781 828, 778.602 828 C 778.422 828, 775.867 833.206, 772.925 839.569 M 384.569 832.133 C 385.460 833.857, 388.206 839.594, 390.670 844.883 L 395.150 854.500 397.435 849 C 398.691 845.975, 401.292 840.237, 403.214 836.250 C 406.584 829.261, 406.632 829, 404.568 829 C 403.249 829, 402.370 829.673, 402.282 830.750 C 402.129 832.614, 397.285 844, 396.645 844 C 396.436 844, 394.976 840.625, 393.401 836.500 L 390.538 829 386.743 829 L 382.949 829 384.569 832.133 M 692.815 840.149 C 693.053 848.552, 692.806 851.507, 691.815 852.135 C 691.026 852.636, 692.701 852.944, 696 852.906 C 699.025 852.871, 700.938 852.615, 700.250 852.338 C 698.629 851.684, 698.450 830, 700.066 830 C 700.652 830, 702.002 830.466, 703.066 831.035 C 705.781 832.488, 705.737 838.535, 703.001 840 C 701.026 841.056, 701.033 841.131, 703.499 845.999 C 706.289 851.504, 708.346 853, 713.125 853 C 715.883 853, 716.147 852.809, 714.846 851.750 C 714.001 851.063, 712.250 848.925, 710.953 847 C 709.657 845.075, 708.197 843.223, 707.708 842.885 C 707.220 842.547, 707.986 841.105, 709.410 839.681 C 712.309 836.782, 712.505 835.829, 710.850 832.684 C 709.105 829.369, 708.110 829.032, 700 829.013 L 692.500 828.996 692.815 840.149 M 734.016 835.250 C 737.311 840.444, 737.983 842.373, 737.990 846.667 C 737.996 849.872, 737.526 852.025, 736.750 852.338 C 736.063 852.615, 738.200 852.864, 741.500 852.891 C 746.037 852.927, 747.073 852.691, 745.750 851.920 C 742.403 849.970, 743.481 843.652, 748.480 835.925 C 752.947 829.020, 752.952 829, 750.421 829 C 749.024 829, 748.103 829.358, 748.374 829.796 C 748.645 830.234, 747.610 832.744, 746.074 835.374 L 743.281 840.155 740.641 835.650 C 739.188 833.171, 738 830.661, 738 830.072 C 738 829.482, 736.211 829, 734.025 829 L 730.051 829 734.016 835.250 M 427.685 840.533 C 426.711 842.576, 426.115 844.449, 426.361 844.694 C 426.607 844.940, 428.132 844.997, 429.751 844.821 L 432.695 844.500 431.076 840.660 L 429.457 836.819 427.685 840.533 M 657.730 839.750 C 657.453 840.712, 656.903 842.288, 656.506 843.250 C 655.911 844.696, 656.326 845, 658.893 845 C 662.297 845, 662.577 844.360, 660.839 840.547 C 659.483 837.569, 658.434 837.301, 657.730 839.750 M 774.701 841.500 L 773.032 845 776.623 845 C 779.651 845, 780.101 844.726, 779.494 843.250 C 779.097 842.288, 778.547 840.712, 778.270 839.750 C 777.519 837.138, 776.557 837.609, 774.701 841.500 M 537.676 840.658 C 535.598 842.735, 538.149 849.291, 541.657 850.890 C 544.254 852.073, 549.284 852.383, 550.247 851.420 C 550.566 851.100, 548.954 849.209, 546.664 847.216 C 544.374 845.223, 541.567 842.780, 540.426 841.787 C 539.285 840.794, 538.048 840.286, 537.676 840.658" stroke="none" fill="#fbfbfb" fill-rule="evenodd"/></svg>